<svg width="22" height="18" viewBox="0 0 22 18" fill="none" xmlns="http://www.w3.org/2000/svg">
<g id="evaEmailOutline0">
<g id="evaEmailOutline1">
<path id="evaEmailOutline2" d="M18 0.9H4C3.17783 0.9 2.38933 1.22661 1.80797 1.80797C1.22661 2.38933 0.9 3.17783 0.9 4V14C0.9 14.8222 1.22661 15.6107 1.80797 16.192C2.38933 16.7734 3.17783 17.1 4 17.1H18C18.8222 17.1 19.6107 16.7734 20.192 16.192C20.7734 15.6107 21.1 14.8222 21.1 14V4C21.1 3.17783 20.7734 2.38933 20.192 1.80797C19.6107 1.22661 18.8222 0.9 18 0.9ZM11 7.62498L4.96987 3.1H17.0301L11 7.62498ZM4 14.9C3.7613 14.9 3.53239 14.8052 3.3636 14.6364C3.19482 14.4676 3.1 14.2387 3.1 14V4.45L10.34 9.88C10.5304 10.0228 10.762 10.1 11 10.1C11.238 10.1 11.4696 10.0228 11.66 9.88L18.9 4.45V14C18.9 14.2387 18.8052 14.4676 18.6364 14.6364C18.4676 14.8052 18.2387 14.9 18 14.9H4Z" fill="#757575" stroke="#242424" stroke-width="0.2"/>
</g>
</g>
</svg>
