<svg width="32" height="32" viewBox="0 0 32 32" fill="none" xmlns="http://www.w3.org/2000/svg">
<g id="icon-park-outline:clothes-turtleneck">
<path id="Vector (Stroke)" fill-rule="evenodd" clip-rule="evenodd" d="M10.6668 2.66671C10.6668 1.93033 11.2638 1.33337 12.0002 1.33337H20.0002C20.7365 1.33337 21.3335 1.93033 21.3335 2.66671V5.66046C21.7198 5.77925 22.1939 5.93426 22.7092 6.12321C23.9849 6.59096 25.668 7.32098 26.8537 8.30908C29.0401 10.131 30.6668 12.8065 30.6668 15.3334V24.6667C30.6668 25.4031 30.0699 26 29.3335 26H26.0002V29.3334C26.0002 30.0698 25.4032 30.6667 24.6668 30.6667H7.3335C6.59712 30.6667 6.00016 30.0698 6.00016 29.3334V26H2.66683C1.93045 26 1.3335 25.4031 1.3335 24.6667V15.3334C1.3335 12.8065 2.96022 10.131 5.14658 8.30908C6.33231 7.32098 8.01545 6.59096 9.29116 6.12321C9.80647 5.93426 10.2805 5.77925 10.6668 5.66046V2.66671ZM13.3335 5.33337H18.6668V4.00004H13.3335V5.33337ZM12.1721 8.00013C12.172 8.00016 12.1722 8.0001 12.1721 8.00013C12.0676 8.02835 11.9134 8.07117 11.721 8.12789C11.3353 8.24162 10.8011 8.40984 10.2092 8.62687C8.98487 9.07578 7.66802 9.6791 6.85374 10.3577C5.0401 11.869 4.00016 13.8602 4.00016 15.3334V23.3334H6.00016V15.3334C6.00016 14.597 6.59712 14 7.3335 14C8.06988 14 8.66683 14.597 8.66683 15.3334V28H23.3335V15.3334C23.3335 14.597 23.9304 14 24.6668 14C25.4032 14 26.0002 14.597 26.0002 15.3334V23.3334H28.0002V15.3334C28.0002 13.8602 26.9602 11.869 25.1466 10.3577C24.3323 9.6791 23.0155 9.07578 21.7912 8.62687C21.1992 8.40984 20.665 8.24162 20.2793 8.12789C20.0869 8.07117 19.9327 8.02835 19.8283 8.00013C19.8281 8.0001 19.8284 8.00016 19.8283 8.00013H12.1721Z" fill="#242424"/>
</g>
</svg>
