<svg width="32" height="32" viewBox="0 0 32 32" fill="none" xmlns="http://www.w3.org/2000/svg">
<g id="ep:food">
<path id="Vector" d="M3.99982 11.018V11C3.9998 9.22213 4.52634 7.48407 5.51302 6.0051C6.4997 4.52614 7.90232 3.37254 9.5439 2.68985C11.1855 2.00716 12.9925 1.82596 14.7369 2.16912C16.4814 2.51227 18.0851 3.36441 19.3458 4.61801C20.3377 4.12843 21.4457 3.92259 22.5472 4.02323C23.6488 4.12386 24.7011 4.52705 25.5879 5.18826C26.4747 5.84947 27.1614 6.74295 27.5722 7.76998C27.9831 8.79702 28.102 9.91763 27.9158 11.008C28.1895 11.0334 28.455 11.1149 28.6957 11.2475C28.9365 11.3801 29.1474 11.5609 29.3151 11.7786C29.4829 11.9963 29.604 12.2462 29.6709 12.5128C29.7378 12.7794 29.749 13.0569 29.7038 13.328C28.7998 18.766 26.5638 22.208 22.9998 23.656V25C22.9998 25.7957 22.6838 26.5587 22.1211 27.1213C21.5585 27.6839 20.7955 28 19.9998 28H11.9998C11.2042 28 10.4411 27.6839 9.8785 27.1213C9.31589 26.5587 8.99982 25.7957 8.99982 25V23.656C5.43582 22.208 3.19982 18.766 2.29582 13.328C2.2522 13.0641 2.26195 12.7941 2.32451 12.534C2.38708 12.274 2.50117 12.0291 2.66005 11.8139C2.81893 11.5987 3.01937 11.4176 3.2495 11.2812C3.47962 11.1448 3.73477 11.056 3.99982 11.02V11.018ZM5.99982 11H7.99982C7.99982 9.67393 8.52661 8.40216 9.46429 7.46448C10.402 6.52679 11.6737 6.00001 12.9998 6.00001C14.3259 6.00001 15.5977 6.52679 16.5354 7.46448C17.473 8.40216 17.9998 9.67393 17.9998 11H19.9998C19.9998 9.1435 19.2623 7.36302 17.9496 6.05026C16.6368 4.73751 14.8563 4.00001 12.9998 4.00001C11.1433 4.00001 9.36283 4.73751 8.05008 6.05026C6.73732 7.36302 5.99982 9.1435 5.99982 11ZM9.99982 11H15.9998C15.9998 10.2044 15.6838 9.4413 15.1211 8.87869C14.5585 8.31608 13.7955 8.00001 12.9998 8.00001C12.2042 8.00001 11.4411 8.31608 10.8785 8.87869C10.3159 9.4413 9.99982 10.2044 9.99982 11ZM23.7318 11H25.8738C26.0248 10.409 26.0389 9.79123 25.915 9.19391C25.7911 8.59659 25.5324 8.03544 25.1588 7.55321C24.7852 7.07098 24.3064 6.6804 23.759 6.41124C23.2115 6.14207 22.6099 6.00143 21.9998 6.00001C21.5198 6.00001 21.0638 6.08401 20.6398 6.23801C20.9938 6.80601 21.2858 7.41801 21.5098 8.06001C21.8908 7.96553 22.291 7.98498 22.661 8.11596C23.031 8.24693 23.3544 8.48366 23.591 8.79677C23.8276 9.10987 23.9671 9.48558 23.9922 9.87725C24.0172 10.2689 23.9267 10.6593 23.7318 11ZM20.9998 24H10.9998V25C10.9998 25.2652 11.1052 25.5196 11.2927 25.7071C11.4803 25.8947 11.7346 26 11.9998 26H19.9998C20.265 26 20.5194 25.8947 20.7069 25.7071C20.8945 25.5196 20.9998 25.2652 20.9998 25V24ZM10.2958 22H21.7038C24.8758 20.98 26.8838 18.096 27.7318 13H4.26782C5.11582 18.096 7.12382 20.98 10.2958 22Z" fill="#242424"/>
</g>
</svg>
