<svg width="24" height="24" viewBox="0 0 24 24" fill="none" xmlns="http://www.w3.org/2000/svg">
<g id="ph:gender-intersex-bold">
<path id="Vector" d="M19.5001 1.875H15.7501C15.4517 1.875 15.1656 1.99353 14.9546 2.2045C14.7436 2.41548 14.6251 2.70163 14.6251 3C14.6251 3.29837 14.7436 3.58452 14.9546 3.7955C15.1656 4.00647 15.4517 4.125 15.7501 4.125H16.7814L15.3151 5.59406C14.5643 4.97016 13.6803 4.52701 12.7311 4.29879C11.782 4.07057 10.7931 4.06337 9.84075 4.27774C8.88839 4.49212 7.99798 4.92234 7.23818 5.53524C6.47838 6.14814 5.86948 6.92735 5.45843 7.81278C5.04738 8.69821 4.84516 9.66622 4.86737 10.6422C4.88958 11.6181 5.13562 12.5759 5.58652 13.4417C6.03742 14.3075 6.68113 15.0582 7.46803 15.6359C8.25492 16.2136 9.16398 16.6029 10.1251 16.7738V17.625H8.25011C7.95174 17.625 7.66559 17.7435 7.45461 17.9545C7.24363 18.1655 7.12511 18.4516 7.12511 18.75C7.12511 19.0484 7.24363 19.3345 7.45461 19.5455C7.66559 19.7565 7.95174 19.875 8.25011 19.875H10.1251V21.75C10.1251 22.0484 10.2436 22.3345 10.4546 22.5455C10.6656 22.7565 10.9517 22.875 11.2501 22.875C11.5485 22.875 11.8346 22.7565 12.0456 22.5455C12.2566 22.3345 12.3751 22.0484 12.3751 21.75V19.875H14.2501C14.5485 19.875 14.8346 19.7565 15.0456 19.5455C15.2566 19.3345 15.3751 19.0484 15.3751 18.75C15.3751 18.4516 15.2566 18.1655 15.0456 17.9545C14.8346 17.7435 14.5485 17.625 14.2501 17.625H12.3751V16.7738C13.3819 16.5942 14.3307 16.1747 15.1412 15.5509C15.9516 14.9271 16.5999 14.1173 17.0312 13.1899C17.4625 12.2626 17.6641 11.245 17.619 10.2233C17.5739 9.20154 17.2834 8.20571 16.772 7.32L18.3751 5.71875V6.75C18.3751 7.04837 18.4936 7.33452 18.7046 7.5455C18.9156 7.75647 19.2017 7.875 19.5001 7.875C19.7985 7.875 20.0846 7.75647 20.2956 7.5455C20.5066 7.33452 20.6251 7.04837 20.6251 6.75V3C20.6251 2.70163 20.5066 2.41548 20.2956 2.2045C20.0846 1.99353 19.7985 1.875 19.5001 1.875ZM11.2501 14.625C10.4343 14.625 9.63673 14.3831 8.95838 13.9298C8.28003 13.4766 7.75132 12.8323 7.4391 12.0786C7.12689 11.3248 7.0452 10.4954 7.20437 9.69525C7.36353 8.89508 7.7564 8.16008 8.33329 7.58318C8.91018 7.00629 9.64519 6.61343 10.4454 6.45426C11.2455 6.2951 12.0749 6.37679 12.8287 6.689C13.5824 7.00121 14.2267 7.52992 14.6799 8.20827C15.1332 8.88663 15.3751 9.68415 15.3751 10.5C15.3739 11.5936 14.9389 12.6421 14.1656 13.4154C13.3922 14.1888 12.3437 14.6238 11.2501 14.625Z" fill="#757575"/>
</g>
</svg>
