<svg width="31" height="28" viewBox="0 0 31 28" fill="none" xmlns="http://www.w3.org/2000/svg">
<g id="Group">
<path id="Vector (Stroke)" fill-rule="evenodd" clip-rule="evenodd" d="M0.333496 2.79994C0.333496 1.62174 1.28861 0.666626 2.46681 0.666626H28.0665C29.2447 0.666626 30.1998 1.62174 30.1998 2.79994V19.8664C30.1998 21.0446 29.2447 21.9997 28.0665 21.9997H2.46681C1.28861 21.9997 0.333496 21.0446 0.333496 19.8664V2.79994ZM28.0665 2.79994H2.46681V19.8664H28.0665V2.79994Z" fill="#242424"/>
<path id="Vector (Stroke)_2" fill-rule="evenodd" clip-rule="evenodd" d="M13.5297 19.9432C14.0767 20.1619 14.3427 20.7827 14.1239 21.3297L12.5757 25.2001H17.958L16.4098 21.3297C16.191 20.7827 16.4571 20.1619 17.004 19.9432C17.551 19.7244 18.1718 19.9904 18.3906 20.5374L20.2557 25.2001H21.6668C22.2559 25.2001 22.7335 25.6777 22.7335 26.2668C22.7335 26.8559 22.2559 27.3334 21.6668 27.3334H19.5584C19.542 27.3338 19.5256 27.3338 19.5093 27.3334H11.0245C11.0081 27.3338 10.9918 27.3338 10.9754 27.3334H8.86695C8.27785 27.3334 7.80029 26.8559 7.80029 26.2668C7.80029 25.6777 8.27785 25.2001 8.86695 25.2001H10.2781L12.1432 20.5374C12.362 19.9904 12.9828 19.7244 13.5297 19.9432Z" fill="#242424"/>
</g>
</svg>
