<svg width="20" height="20" viewBox="0 0 20 20" fill="none" xmlns="http://www.w3.org/2000/svg">
<g id="Group">
<path id="Vector (Stroke)" fill-rule="evenodd" clip-rule="evenodd" d="M6.25 13.5C5.52065 13.5 4.82118 13.7897 4.30546 14.3055C3.78973 14.8212 3.5 15.5207 3.5 16.25C3.5 16.4489 3.57902 16.6397 3.71967 16.7803C3.86032 16.921 4.05109 17 4.25 17H16.25C16.4489 17 16.6397 16.921 16.7803 16.7803C16.921 16.6397 17 16.4489 17 16.25C17 15.5207 16.7103 14.8212 16.1945 14.3055C15.6788 13.7897 14.9793 13.5 14.25 13.5H6.25ZM2.53769 12.5377C3.52226 11.5531 4.85761 11 6.25 11H14.25C15.6424 11 16.9777 11.5531 17.9623 12.5377C18.9469 13.5223 19.5 14.8576 19.5 16.25C19.5 17.112 19.1576 17.9386 18.5481 18.5481C17.9386 19.1576 17.112 19.5 16.25 19.5H4.25C3.38805 19.5 2.5614 19.1576 1.9519 18.5481C1.34241 17.9386 1 17.112 1 16.25C1 14.8576 1.55312 13.5223 2.53769 12.5377Z" fill="#757575"/>
<path id="Vector (Stroke) (Stroke)" fill-rule="evenodd" clip-rule="evenodd" d="M2.36091 12.3609C3.39236 11.3295 4.79131 10.75 6.25 10.75H14.25C15.7087 10.75 17.1076 11.3295 18.1391 12.3609C19.1705 13.3924 19.75 14.7913 19.75 16.25C19.75 17.1783 19.3813 18.0685 18.7249 18.7249C18.0685 19.3813 17.1783 19.75 16.25 19.75H4.25C3.32174 19.75 2.4315 19.3813 1.77513 18.7249C1.11875 18.0685 0.75 17.1783 0.75 16.25C0.75 14.7913 1.32946 13.3924 2.36091 12.3609ZM6.25 11.25C4.92392 11.25 3.65215 11.7768 2.71447 12.7145C1.77678 13.6521 1.25 14.9239 1.25 16.25C1.25 17.0456 1.56607 17.8087 2.12868 18.3713C2.69129 18.9339 3.45435 19.25 4.25 19.25H16.25C17.0457 19.25 17.8087 18.9339 18.3713 18.3713C18.9339 17.8087 19.25 17.0457 19.25 16.25C19.25 14.9239 18.7232 13.6521 17.7855 12.7145C16.8479 11.7768 15.5761 11.25 14.25 11.25H6.25ZM6.25 13.75C5.58696 13.75 4.95107 14.0134 4.48223 14.4822C4.01339 14.9511 3.75 15.587 3.75 16.25C3.75 16.3826 3.80268 16.5098 3.89645 16.6036C3.99022 16.6973 4.11739 16.75 4.25 16.75H16.25C16.3826 16.75 16.5098 16.6973 16.6036 16.6036C16.6973 16.5098 16.75 16.3826 16.75 16.25C16.75 15.587 16.4866 14.9511 16.0178 14.4822C15.5489 14.0134 14.913 13.75 14.25 13.75H6.25ZM4.12868 14.1287C4.69129 13.5661 5.45435 13.25 6.25 13.25H14.25C15.0456 13.25 15.8087 13.5661 16.3713 14.1287C16.9339 14.6913 17.25 15.4544 17.25 16.25C17.25 16.5152 17.1446 16.7696 16.9571 16.9571C16.7696 17.1446 16.5152 17.25 16.25 17.25H4.25C3.98478 17.25 3.73043 17.1446 3.54289 16.9571C3.35536 16.7696 3.25 16.5152 3.25 16.25C3.25 15.4544 3.56607 14.6913 4.12868 14.1287Z" fill="#757575"/>
<path id="Vector (Stroke)_2" fill-rule="evenodd" clip-rule="evenodd" d="M10.25 3.5C9.2835 3.5 8.5 4.2835 8.5 5.25C8.5 6.2165 9.2835 7 10.25 7C11.2165 7 12 6.2165 12 5.25C12 4.2835 11.2165 3.5 10.25 3.5ZM6 5.25C6 2.90279 7.90279 1 10.25 1C12.5972 1 14.5 2.90279 14.5 5.25C14.5 7.59721 12.5972 9.5 10.25 9.5C7.90279 9.5 6 7.59721 6 5.25Z" fill="#757575"/>
<path id="Vector (Stroke) (Stroke)_2" fill-rule="evenodd" clip-rule="evenodd" d="M5.75 5.25C5.75 2.76472 7.76472 0.75 10.25 0.75C12.7353 0.75 14.75 2.76472 14.75 5.25C14.75 7.73528 12.7353 9.75 10.25 9.75C7.76472 9.75 5.75 7.73528 5.75 5.25ZM10.25 1.25C8.04086 1.25 6.25 3.04086 6.25 5.25C6.25 7.45914 8.04086 9.25 10.25 9.25C12.4591 9.25 14.25 7.45914 14.25 5.25C14.25 3.04086 12.4591 1.25 10.25 1.25ZM10.25 3.75C9.42157 3.75 8.75 4.42157 8.75 5.25C8.75 6.07843 9.42157 6.75 10.25 6.75C11.0784 6.75 11.75 6.07843 11.75 5.25C11.75 4.42157 11.0784 3.75 10.25 3.75ZM8.25 5.25C8.25 4.14543 9.14543 3.25 10.25 3.25C11.3546 3.25 12.25 4.14543 12.25 5.25C12.25 6.35457 11.3546 7.25 10.25 7.25C9.14543 7.25 8.25 6.35457 8.25 5.25Z" fill="#757575"/>
</g>
</svg>
