<svg width="24" height="24" viewBox="0 0 24 24" fill="none" xmlns="http://www.w3.org/2000/svg">
<g id="icon-park-outline:lipstick">
<path id="Vector (Stroke)" fill-rule="evenodd" clip-rule="evenodd" d="M5.39565 2.77021C6.09467 1.80703 7.27023 1 9.1 1C9.43137 1 9.7 1.26863 9.7 1.6V11H10.6C10.9314 11 11.2 11.2686 11.2 11.6V21.6C11.2 21.9314 10.9314 22.2 10.6 22.2H3.6C3.26863 22.2 3 21.9314 3 21.6V11.6C3 11.2686 3.26863 11 3.6 11H4.5V5.327C4.5 4.75819 4.72064 3.70031 5.39565 2.77021ZM5.7 11H8.5V2.23887C7.4399 2.38227 6.78202 2.90297 6.36684 3.47504C5.85436 4.18119 5.7 4.98681 5.7 5.327V11ZM4.2 12.2V15H10V12.2H4.2ZM10 16.2H4.2V21H10V16.2ZM14 11.6C14 11.2686 14.2686 11 14.6 11H20.6C20.9314 11 21.2 11.2686 21.2 11.6V21.6C21.2 21.9314 20.9314 22.2 20.6 22.2H14.6C14.2686 22.2 14 21.9314 14 21.6V11.6ZM15.2 12.2V21H20V12.2H15.2Z" fill="#242424"/>
<path id="Vector (Stroke) (Stroke)" fill-rule="evenodd" clip-rule="evenodd" d="M5.19332 2.62337C5.93616 1.59981 7.18484 0.75 9.1 0.75C9.56944 0.75 9.95 1.13056 9.95 1.6V10.75H10.6C11.0694 10.75 11.45 11.1306 11.45 11.6V21.6C11.45 22.0694 11.0694 22.45 10.6 22.45H3.6C3.13056 22.45 2.75 22.0694 2.75 21.6V11.6C2.75 11.1306 3.13056 10.75 3.6 10.75H4.25V5.327C4.25 4.71058 4.48443 3.60014 5.19332 2.62337ZM9.1 1.25C7.35561 1.25 6.25318 2.01426 5.59799 2.91705C4.95684 3.80047 4.75 4.80579 4.75 5.327V11C4.75 11.1381 4.63807 11.25 4.5 11.25H3.6C3.4067 11.25 3.25 11.4067 3.25 11.6V21.6C3.25 21.7933 3.4067 21.95 3.6 21.95H10.6C10.7933 21.95 10.95 21.7933 10.95 21.6V11.6C10.95 11.4067 10.7933 11.25 10.6 11.25H9.7C9.56192 11.25 9.45 11.1381 9.45 11V1.6C9.45 1.4067 9.2933 1.25 9.1 1.25ZM8.6645 2.05062C8.71883 2.09809 8.75 2.16672 8.75 2.23887V11C8.75 11.1381 8.63807 11.25 8.5 11.25H5.7C5.56193 11.25 5.45 11.1381 5.45 11V5.327C5.45 4.93915 5.61819 4.08098 6.16451 3.3282C6.61477 2.7078 7.33062 2.14477 8.46649 1.99113C8.53798 1.98146 8.61017 2.00315 8.6645 2.05062ZM8.25 2.53653C7.43157 2.71574 6.91133 3.15043 6.56917 3.62188C6.09053 4.2814 5.95 5.03447 5.95 5.327V10.75H8.25V2.53653ZM13.75 11.6C13.75 11.1306 14.1306 10.75 14.6 10.75H20.6C21.0694 10.75 21.45 11.1306 21.45 11.6V21.6C21.45 22.0694 21.0694 22.45 20.6 22.45H14.6C14.1306 22.45 13.75 22.0694 13.75 21.6V11.6ZM14.6 11.25C14.4067 11.25 14.25 11.4067 14.25 11.6V21.6C14.25 21.7933 14.4067 21.95 14.6 21.95H20.6C20.7933 21.95 20.95 21.7933 20.95 21.6V11.6C20.95 11.4067 20.7933 11.25 20.6 11.25H14.6ZM3.95 12.2C3.95 12.0619 4.06193 11.95 4.2 11.95H10C10.1381 11.95 10.25 12.0619 10.25 12.2V15C10.25 15.1381 10.1381 15.25 10 15.25H4.2C4.06193 15.25 3.95 15.1381 3.95 15V12.2ZM4.45 12.45V14.75H9.75V12.45H4.45ZM14.95 12.2C14.95 12.0619 15.0619 11.95 15.2 11.95H20C20.1381 11.95 20.25 12.0619 20.25 12.2V21C20.25 21.1381 20.1381 21.25 20 21.25H15.2C15.0619 21.25 14.95 21.1381 14.95 21V12.2ZM15.45 12.45V20.75H19.75V12.45H15.45ZM3.95 16.2C3.95 16.0619 4.06193 15.95 4.2 15.95H10C10.1381 15.95 10.25 16.0619 10.25 16.2V21C10.25 21.1381 10.1381 21.25 10 21.25H4.2C4.06193 21.25 3.95 21.1381 3.95 21V16.2ZM4.45 16.45V20.75H9.75V16.45H4.45Z" fill="#242424"/>
</g>
</svg>
