<svg width="120" height="120" viewBox="0 0 120 120" fill="none" xmlns="http://www.w3.org/2000/svg">
<g clip-path="url(#clip0_21_1304)">
<path d="M118.258 74.3285C126.174 42.1507 106.506 9.64865 74.3278 1.73311C42.15 -6.18243 9.64791 13.486 1.73237 45.6638C-6.18317 77.8416 13.4853 110.344 45.6631 118.259C77.8409 126.175 110.343 106.506 118.258 74.3285Z" fill="#242424"/>
<mask id="mask0_21_1304" style="mask-type:luminance" maskUnits="userSpaceOnUse" x="31" y="22" width="63" height="49">
<path d="M69.0231 70.8115H39.9C35.0192 70.8115 31.0615 66.8538 31.0615 61.973C31.0615 57.0922 35.0192 53.1345 39.9 53.1345H69.0231C72.5884 53.1345 75.4961 50.2268 75.4961 46.6615C75.4961 43.0961 72.5884 40.1884 69.0231 40.1884H39.9C35.0192 40.1884 31.0615 36.2307 31.0615 31.3499C31.0615 26.4692 35.0192 22.5115 39.9 22.5115H69.0231C82.3384 22.5115 93.1615 33.3461 93.1615 46.6499C93.1615 59.9538 82.3269 70.7884 69.0231 70.7884V70.8115Z" fill="white"/>
</mask>
<g mask="url(#mask0_21_1304)">
<path d="M69.0231 70.8115H39.9C35.0192 70.8115 31.0615 66.8538 31.0615 61.973C31.0615 57.0922 35.0192 53.1345 39.9 53.1345H69.0231C72.5884 53.1345 75.4961 50.2268 75.4961 46.6615C75.4961 43.0961 72.5884 40.1884 69.0231 40.1884H39.9C35.0192 40.1884 31.0615 36.2307 31.0615 31.3499C31.0615 26.4692 35.0192 22.5115 39.9 22.5115H69.0231C82.3384 22.5115 93.1615 33.3461 93.1615 46.6499C93.1615 59.9538 82.3269 70.7884 69.0231 70.7884V70.8115Z" fill="url(#paint0_linear_21_1304)"/>
<g filter="url(#filter0_d_21_1304)">
<path d="M86.4923 22.9038C74.0654 12.0807 56.3308 8.06533 39.6808 13.9499C15.0577 22.6499 2.15769 49.65 10.8461 74.2615C16.2692 89.6077 28.8 100.408 43.4423 104.25C37.2231 71.0307 55.0961 36.5423 86.4923 22.9038Z" fill="url(#paint1_linear_21_1304)"/>
</g>
</g>
<mask id="mask1_21_1304" style="mask-type:luminance" maskUnits="userSpaceOnUse" x="30" y="83" width="33" height="19">
<path d="M62.1231 92.1922C62.1231 87.3115 58.1654 83.3538 53.2846 83.3538H39.8077C34.9269 83.3538 30.9692 87.3115 30.9692 92.1922C30.9692 97.073 34.9269 101.031 39.8077 101.031H53.2846C58.1654 101.031 62.1231 97.073 62.1231 92.1922Z" fill="white"/>
</mask>
<g mask="url(#mask1_21_1304)">
<path d="M62.1231 92.1922C62.1231 87.3115 58.1654 83.3538 53.2846 83.3538H39.8077C34.9269 83.3538 30.9692 87.3115 30.9692 92.1922C30.9692 97.073 34.9269 101.031 39.8077 101.031H53.2846C58.1654 101.031 62.1231 97.073 62.1231 92.1922Z" fill="url(#paint2_linear_21_1304)"/>
<g filter="url(#filter1_d_21_1304)">
<path d="M86.4923 22.9038C74.0654 12.0807 56.3308 8.06533 39.6808 13.9499C15.0577 22.6499 2.15769 49.65 10.8461 74.2615C16.2692 89.6077 28.8 100.408 43.4423 104.25C37.2231 71.0307 55.0961 36.5423 86.4923 22.9038Z" fill="url(#paint3_linear_21_1304)"/>
</g>
</g>
</g>
<defs>
<filter id="filter0_d_21_1304" x="7.83708" y="10.9391" width="80.3152" height="94.9709" filterUnits="userSpaceOnUse" color-interpolation-filters="sRGB">
<feFlood flood-opacity="0" result="BackgroundImageFix"/>
<feColorMatrix in="SourceAlpha" type="matrix" values="0 0 0 0 0 0 0 0 0 0 0 0 0 0 0 0 0 0 127 0" result="hardAlpha"/>
<feOffset dx="0.68" dy="0.68"/>
<feGaussianBlur stdDeviation="0.49"/>
<feColorMatrix type="matrix" values="0 0 0 0 1 0 0 0 0 0.45098 0 0 0 0 0 0 0 0 0.3 0"/>
<feBlend mode="normal" in2="BackgroundImageFix" result="effect1_dropShadow_21_1304"/>
<feBlend mode="normal" in="SourceGraphic" in2="effect1_dropShadow_21_1304" result="shape"/>
</filter>
<filter id="filter1_d_21_1304" x="7.83708" y="10.9391" width="80.3152" height="94.9709" filterUnits="userSpaceOnUse" color-interpolation-filters="sRGB">
<feFlood flood-opacity="0" result="BackgroundImageFix"/>
<feColorMatrix in="SourceAlpha" type="matrix" values="0 0 0 0 0 0 0 0 0 0 0 0 0 0 0 0 0 0 127 0" result="hardAlpha"/>
<feOffset dx="0.68" dy="0.68"/>
<feGaussianBlur stdDeviation="0.49"/>
<feColorMatrix type="matrix" values="0 0 0 0 1 0 0 0 0 0.772549 0 0 0 0 0 0 0 0 0.3 0"/>
<feBlend mode="normal" in2="BackgroundImageFix" result="effect1_dropShadow_21_1304"/>
<feBlend mode="normal" in="SourceGraphic" in2="effect1_dropShadow_21_1304" result="shape"/>
</filter>
<linearGradient id="paint0_linear_21_1304" x1="31.0731" y1="46.673" x2="93.1615" y2="46.673" gradientUnits="userSpaceOnUse">
<stop stop-color="#FFC500"/>
<stop offset="1" stop-color="#FFC500"/>
</linearGradient>
<linearGradient id="paint1_linear_21_1304" x1="8.26376" y1="62.2544" x2="89.9173" y2="52.9944" gradientUnits="userSpaceOnUse">
<stop stop-color="#FFC500"/>
<stop offset="1" stop-color="#FFC500"/>
</linearGradient>
<linearGradient id="paint2_linear_21_1304" x1="30.9692" y1="92.1922" x2="62.1231" y2="92.1922" gradientUnits="userSpaceOnUse">
<stop stop-color="#FFC500"/>
<stop offset="1" stop-color="#FFC500"/>
</linearGradient>
<linearGradient id="paint3_linear_21_1304" x1="8.26376" y1="62.2544" x2="89.9173" y2="52.9944" gradientUnits="userSpaceOnUse">
<stop stop-color="#FFC500"/>
<stop offset="1" stop-color="#FFC500"/>
</linearGradient>
<clipPath id="clip0_21_1304">
<rect width="120" height="120" fill="white"/>
</clipPath>
</defs>
</svg>
