<svg width="30" height="26" viewBox="0 0 30 26" fill="none" xmlns="http://www.w3.org/2000/svg">
<g id="Group">
<path id="Vector" d="M2.08016 11.9894C2.03115 11.7929 2.02755 11.5878 2.06963 11.3897C2.11171 11.1916 2.19837 11.0056 2.32303 10.846C2.4477 10.6864 2.60708 10.5573 2.78909 10.4684C2.97111 10.3796 3.17096 10.3334 3.37349 10.3334H26.6268C26.8294 10.3334 27.0292 10.3796 27.2112 10.4684C27.3932 10.5573 27.5526 10.6864 27.6773 10.846C27.8019 11.0056 27.8886 11.1916 27.9307 11.3897C27.9728 11.5878 27.9692 11.7929 27.9202 11.9894L25.5055 21.6467C25.3613 22.2236 25.0284 22.7358 24.5597 23.1018C24.091 23.4678 23.5135 23.6666 22.9188 23.6667H7.08149C6.48684 23.6666 5.90927 23.4678 5.4406 23.1018C4.97192 22.7358 4.63903 22.2236 4.49483 21.6467L2.08016 11.9907V11.9894Z" stroke="black" stroke-width="3" stroke-linejoin="round"/>
<path id="Vector_2" d="M11 15.6667V18.3334M19 15.6667V18.3334M7 10.3334L12.3333 2.33337M23 10.3334L17.6667 2.33337" stroke="black" stroke-width="3" stroke-linecap="round"/>
</g>
</svg>
