<svg width="28" height="31" viewBox="0 0 28 31" fill="none" xmlns="http://www.w3.org/2000/svg">
<g id="Group">
<path id="Vector (Stroke)" fill-rule="evenodd" clip-rule="evenodd" d="M13.6323 0.38665C13.8763 0.315419 14.1357 0.315453 14.3797 0.38675L26.3737 3.89075C26.9423 4.05687 27.3332 4.57821 27.3332 5.17059V12.3559C27.3331 16.3183 26.0862 20.1801 23.7692 23.3944C21.4522 26.6086 18.1825 29.0123 14.4233 30.2649C14.1498 30.356 13.8541 30.356 13.5805 30.2649C9.82026 29.0125 6.5495 26.6086 4.23168 23.3937C1.91387 20.1787 0.666561 16.3159 0.666504 12.3526V5.17059C0.666504 4.57808 1.0575 4.05665 1.62628 3.89065L13.6323 0.38665ZM3.33317 6.17041V12.3526C3.33322 15.7561 4.40435 19.0733 6.39479 21.8341C8.29814 24.4742 10.9498 26.4774 14.0017 27.5881C17.0527 26.4773 19.7033 24.4744 21.606 21.835C23.5957 19.0748 24.6664 15.7585 24.6665 12.3559V6.17013L14.0057 3.0556L3.33317 6.17041Z" fill="black"/>
<path id="Vector (Stroke)_2" fill-rule="evenodd" clip-rule="evenodd" d="M21.6093 10.0572C22.13 10.5778 22.13 11.4221 21.6093 11.9428L13.6093 19.9428C13.0886 20.4635 12.2444 20.4635 11.7237 19.9428L7.05703 15.2761C6.53633 14.7554 6.53633 13.9112 7.05703 13.3905C7.57773 12.8698 8.42195 12.8698 8.94265 13.3905L12.6665 17.1143L19.7237 10.0572C20.2444 9.53645 21.0886 9.53645 21.6093 10.0572Z" fill="black"/>
</g>
</svg>
