<svg width="24" height="24" viewBox="0 0 24 24" fill="none" xmlns="http://www.w3.org/2000/svg">
<g id="mdi:password-outline">
<path id="Vector" d="M12 17C11.4696 17 10.9609 16.7893 10.5858 16.4142C10.2107 16.0391 10 15.5304 10 15C10 13.89 10.89 13 12 13C12.5304 13 13.0391 13.2107 13.4142 13.5858C13.7893 13.9609 14 14.4696 14 15C14 15.5304 13.7893 16.0391 13.4142 16.4142C13.0391 16.7893 12.5304 17 12 17ZM18 20V10H6V20H18ZM18 8C18.5304 8 19.0391 8.21071 19.4142 8.58579C19.7893 8.96086 20 9.46957 20 10V20C20 20.5304 19.7893 21.0391 19.4142 21.4142C19.0391 21.7893 18.5304 22 18 22H6C5.46957 22 4.96086 21.7893 4.58579 21.4142C4.21071 21.0391 4 20.5304 4 20V10C4 8.89 4.89 8 6 8H7V6C7 4.67392 7.52678 3.40215 8.46447 2.46447C9.40215 1.52678 10.6739 1 12 1C12.6566 1 13.3068 1.12933 13.9134 1.3806C14.52 1.63188 15.0712 2.00017 15.5355 2.46447C15.9998 2.92876 16.3681 3.47995 16.6194 4.08658C16.8707 4.69321 17 5.34339 17 6V8H18ZM12 3C11.2044 3 10.4413 3.31607 9.87868 3.87868C9.31607 4.44129 9 5.20435 9 6V8H15V6C15 5.20435 14.6839 4.44129 14.1213 3.87868C13.5587 3.31607 12.7956 3 12 3Z" fill="#757575"/>
<path id="Vector (Stroke)" fill-rule="evenodd" clip-rule="evenodd" d="M12 17.5C11.337 17.5 10.7011 17.2366 10.2322 16.7678C9.76339 16.2989 9.5 15.663 9.5 15C9.5 13.6139 10.6139 12.5 12 12.5C12.663 12.5 13.2989 12.7634 13.7678 13.2322C14.2366 13.7011 14.5 14.337 14.5 15C14.5 15.663 14.2366 16.2989 13.7678 16.7678C13.2989 17.2366 12.663 17.5 12 17.5ZM6 10V20H18V10H6ZM17.5 10.5H6.5V19.5H17.5V10.5ZM18 7.5C18.663 7.5 19.2989 7.76339 19.7678 8.23223C20.2366 8.70107 20.5 9.33696 20.5 10V20C20.5 20.663 20.2366 21.2989 19.7678 21.7678C19.2989 22.2366 18.663 22.5 18 22.5H6C5.33696 22.5 4.70107 22.2366 4.23223 21.7678C3.76339 21.2989 3.5 20.663 3.5 20V10C3.5 8.61386 4.61386 7.5 6 7.5H6.5V6C6.5 4.54131 7.07946 3.14236 8.11091 2.11091C9.14236 1.07946 10.5413 0.5 12 0.5C12.7223 0.5 13.4375 0.642262 14.1048 0.918663C14.772 1.19506 15.3784 1.60019 15.8891 2.11091C16.3998 2.62163 16.8049 3.22795 17.0813 3.89524C17.3577 4.56253 17.5 5.27773 17.5 6V7.5H18ZM18 8C18.5304 8 19.0391 8.21071 19.4142 8.58579C19.7893 8.96086 20 9.46957 20 10V20C20 20.5304 19.7893 21.0391 19.4142 21.4142C19.0391 21.7893 18.5304 22 18 22H6C5.46957 22 4.96086 21.7893 4.58579 21.4142C4.21071 21.0391 4 20.5304 4 20V10C4 8.89 4.89 8 6 8H7V6C7 4.67392 7.52678 3.40215 8.46447 2.46447C9.40215 1.52678 10.6739 1 12 1C12.6566 1 13.3068 1.12933 13.9134 1.3806C14.52 1.63188 15.0712 2.00017 15.5355 2.46447C15.9998 2.92876 16.3681 3.47995 16.6194 4.08658C16.8707 4.69321 17 5.34339 17 6V8H18ZM12 3.5C11.337 3.5 10.7011 3.76339 10.2322 4.23223C9.76339 4.70107 9.5 5.33696 9.5 6V7.5H14.5V6C14.5 5.33696 14.2366 4.70107 13.7678 4.23223C13.2989 3.76339 12.663 3.5 12 3.5ZM15 6C15 5.20435 14.6839 4.44129 14.1213 3.87868C13.5587 3.31607 12.7956 3 12 3C11.2044 3 10.4413 3.31607 9.87868 3.87868C9.31607 4.44129 9 5.20435 9 6V8H15V6ZM10.5858 16.4142C10.9609 16.7893 11.4696 17 12 17C12.5304 17 13.0391 16.7893 13.4142 16.4142C13.7893 16.0391 14 15.5304 14 15C14 14.4696 13.7893 13.9609 13.4142 13.5858C13.0391 13.2107 12.5304 13 12 13C10.89 13 10 13.89 10 15C10 15.5304 10.2107 16.0391 10.5858 16.4142Z" fill="#757575"/>
</g>
</svg>
