<svg width="24" height="24" viewBox="0 0 24 24" fill="none" xmlns="http://www.w3.org/2000/svg">
<g id="Phone">
<path id="Vector" d="M7.6875 1.25C6.97473 1.25 6.29115 1.53315 5.78715 2.03715C5.28315 2.54115 5 3.22473 5 3.9375V20.0625C5 20.7753 5.28315 21.4588 5.78715 21.9629C6.29115 22.4669 6.97473 22.75 7.6875 22.75H16.3125C17.0253 22.75 17.7088 22.4669 18.2128 21.9629C18.7169 21.4588 19 20.7753 19 20.0625V3.9375C19 3.22473 18.7169 2.54115 18.2129 2.03715C17.7088 1.53315 17.0253 1.25 16.3125 1.25H7.6875ZM7 3.9375C7 3.55807 7.30807 3.25 7.6875 3.25H16.3125C16.6919 3.25 17 3.55807 17 3.9375V20.0625C17 20.4419 16.6919 20.75 16.3125 20.75H7.6875C7.30807 20.75 7 20.4419 7 20.0625V3.9375ZM10.5 17.75C10.2348 17.75 9.98043 17.8554 9.79289 18.0429C9.60536 18.2304 9.5 18.4848 9.5 18.75C9.5 19.0152 9.60536 19.2696 9.79289 19.4571C9.98043 19.6446 10.2348 19.75 10.5 19.75H13.5C13.7652 19.75 14.0196 19.6446 14.2071 19.4571C14.3946 19.2696 14.5 19.0152 14.5 18.75C14.5 18.4848 14.3946 18.2304 14.2071 18.0429C14.0196 17.8554 13.7652 17.75 13.5 17.75H10.5Z" fill="#757575" stroke="#757575" stroke-width="0.5"/>
</g>
</svg>
