<svg width="32" height="32" viewBox="0 0 32 32" fill="none" xmlns="http://www.w3.org/2000/svg">
<g id="material-symbols:travel">
<path id="Vector (Stroke)" fill-rule="evenodd" clip-rule="evenodd" d="M12.8666 25.7334L11.4666 27.1334L9.13323 22.8667L4.86657 20.5334L6.26657 19.1334L9.5999 19.6L14.7999 14.4L4.3999 8.73336L6.26657 6.86669L18.9999 10.1334L24.2332 4.96669C24.611 4.58891 25.0835 4.40002 25.6506 4.40002C26.2177 4.40002 26.6897 4.58891 27.0666 4.96669C27.4443 5.34447 27.6332 5.81691 27.6332 6.38402C27.6332 6.95114 27.4443 7.42314 27.0666 7.80002L21.8666 13L25.1332 25.7334L23.2666 27.6L17.5999 17.2L12.3999 22.4L12.8666 25.7334ZM21.7706 20.6744L18.0967 13.9317L18.1051 13.9233L18.0867 13.9133L18.0766 13.8949L18.0683 13.9032L11.3255 10.2293L19.5994 12.3519L25.6276 6.40056C25.6293 6.40047 25.6311 6.4004 25.633 6.40033C25.6329 6.40208 25.6329 6.40377 25.6328 6.40539L19.6459 12.3923L21.7706 20.6744ZM25.6508 6.37769C25.6508 6.3777 25.6508 6.37768 25.6508 6.37769V6.37769Z" fill="#242424"/>
</g>
</svg>
