<svg width="32" height="32" viewBox="0 0 32 32" fill="none" xmlns="http://www.w3.org/2000/svg">
<g id="mdi:coupon-outline">
<path id="Vector" d="M19.8665 10.5333L21.4665 12.1333L12.3998 21.2L10.7998 19.6L19.8665 10.5333ZM5.46647 5.19995H26.7998C28.2798 5.19995 29.4665 6.38662 29.4665 7.86662V13.2C28.7592 13.2 28.081 13.4809 27.5809 13.981C27.0808 14.4811 26.7998 15.1594 26.7998 15.8666C26.7998 16.5739 27.0808 17.2521 27.5809 17.7522C28.081 18.2523 28.7592 18.5333 29.4665 18.5333V23.8666C29.4665 25.3466 28.2798 26.5333 26.7998 26.5333H5.46647C4.75923 26.5333 4.08095 26.2523 3.58085 25.7522C3.08076 25.2521 2.7998 24.5739 2.7998 23.8666V18.5333C4.2798 18.5333 5.46647 17.3466 5.46647 15.8666C5.46647 15.1594 5.18552 14.4811 4.68542 13.981C4.18533 13.4809 3.50705 13.2 2.7998 13.2V7.86662C2.7998 7.15937 3.08076 6.4811 3.58085 5.981C4.08095 5.4809 4.75923 5.19995 5.46647 5.19995ZM5.46647 7.86662V11.2533C6.27671 11.7205 6.94961 12.3928 7.41748 13.2027C7.88534 14.0125 8.13167 14.9313 8.13167 15.8666C8.13167 16.8019 7.88534 17.7207 7.41748 18.5305C6.94961 19.3404 6.27671 20.0128 5.46647 20.4799V23.8666H26.7998V20.4799C25.9896 20.0128 25.3167 19.3404 24.8488 18.5305C24.3809 17.7207 24.1346 16.8019 24.1346 15.8666C24.1346 14.9313 24.3809 14.0125 24.8488 13.2027C25.3167 12.3928 25.9896 11.7205 26.7998 11.2533V7.86662H5.46647ZM12.7998 10.5333C13.9065 10.5333 14.7998 11.4266 14.7998 12.5333C14.7998 13.64 13.9065 14.5333 12.7998 14.5333C11.6931 14.5333 10.7998 13.64 10.7998 12.5333C10.7998 11.4266 11.6931 10.5333 12.7998 10.5333ZM19.4665 17.2C20.5731 17.2 21.4665 18.0933 21.4665 19.2C21.4665 20.3066 20.5731 21.2 19.4665 21.2C18.3598 21.2 17.4665 20.3066 17.4665 19.2C17.4665 18.0933 18.3598 17.2 19.4665 17.2Z" fill="#242424"/>
</g>
</svg>
